HIERARCHY
ROOT Hips
{
	OFFSET -3.958830 18.904000 13.208200
	CHANNELS 6 Xposition Yposition Zposition Zrotation Yrotation Xrotation 
	JOINT LHipJoint
	{
		OFFSET 0.000000 0.000000 0.000000
		CHANNELS 3 Zrotation Yrotation Xrotation
		JOINT LeftUpLeg
		{
			OFFSET 1.800000 -1.400000 0.085000
			CHANNELS 3 Zrotation Yrotation Xrotation
			JOINT LeftLeg
			{
				OFFSET 2.215000 -6.000000 0.000000
				CHANNELS 3 Zrotation Yrotation Xrotation
				JOINT LeftFoot
				{
					OFFSET 2.500000 -6.900000 0.000000
					CHANNELS 3 Zrotation Yrotation Xrotation
					JOINT LeftToeBase
					{
						OFFSET 0.200000 -0.500000 1.950000
						CHANNELS 3 Zrotation Yrotation Xrotation
						End Site
						{
							OFFSET 0.000000 0.000000 0.000000
						}
					}
				}
			}
		}
	}
	JOINT RHipJoint
	{
		OFFSET 0.000000 0.000000 0.000000
		CHANNELS 3 Zrotation Yrotation Xrotation
		JOINT RightUpLeg
		{
			OFFSET -1.800000 -1.400000 0.085000
			CHANNELS 3 Zrotation Yrotation Xrotation
			JOINT RightLeg
			{
				OFFSET -2.215000 -6.000000 0.000000
				CHANNELS 3 Zrotation Yrotation Xrotation
				JOINT RightFoot
				{
					OFFSET -2.500000 -6.900000 0.000000
					CHANNELS 3 Zrotation Yrotation Xrotation
					JOINT RightToeBase
					{
						OFFSET -0.200000 -0.500000 1.950000
						CHANNELS 3 Zrotation Yrotation Xrotation
						End Site
						{
							OFFSET 0.000000 0.000000 0.000000
						}
					}
				}
			}
		}
	}
	JOINT LowerBack
	{
		OFFSET 0.000000 0.000000 0.000000
		CHANNELS 3 Zrotation Yrotation Xrotation
		JOINT Spine
		{
			OFFSET -0.087000 1.940000 -0.288900
			CHANNELS 3 Zrotation Yrotation Xrotation
			JOINT Spine1
			{
				OFFSET 0.000000 1.950000 0.060000
				CHANNELS 3 Zrotation Yrotation Xrotation
				JOINT Neck
				{
					OFFSET 0.000000 0.000000 0.000000
					CHANNELS 3 Zrotation Yrotation Xrotation
					JOINT Neck1
					{
						OFFSET 0.000000 1.600000 0.340000
						CHANNELS 3 Zrotation Yrotation Xrotation
						JOINT Head
						{
							OFFSET 0.000000 1.667000 -0.240000
							CHANNELS 3 Zrotation Yrotation Xrotation
							End Site
							{
								OFFSET 0.000000 0.000000 0.000000
							}
						}
					}
				}
				JOINT LeftShoulder
				{
					OFFSET 0.000000 0.000000 0.000000
					CHANNELS 3 Zrotation Yrotation Xrotation
					JOINT LeftArm
					{
						OFFSET 2.700000 1.550000 -0.730000
						CHANNELS 3 Zrotation Yrotation Xrotation
						JOINT LeftForeArm
						{
							OFFSET 5.450000 0.000000 0.000000
							CHANNELS 3 Zrotation Yrotation Xrotation
							JOINT LeftHand
							{
								OFFSET 3.450000 0.000000 0.000000
								CHANNELS 3 Zrotation Yrotation Xrotation
								JOINT LeftHandIndex1
								{
									OFFSET 0.750000 0.000000 0.000000
									CHANNELS 3 Zrotation Yrotation Xrotation
									End Site
									{
										OFFSET 0.000000 0.000000 0.000000
									}
								}
							}
						}
					}
				}
				JOINT RightShoulder
				{
					OFFSET 0.000000 0.000000 0.000000
					CHANNELS 3 Zrotation Yrotation Xrotation
					JOINT RightArm
					{
						OFFSET -2.700000 1.550000 -0.730000
						CHANNELS 3 Zrotation Yrotation Xrotation
						JOINT RightForeArm
						{
							OFFSET -5.450000 0.000000 0.000000
							CHANNELS 3 Zrotation Yrotation Xrotation
							JOINT RightHand
							{
								OFFSET -3.450000 0.000000 0.000000
								CHANNELS 3 Zrotation Yrotation Xrotation
								JOINT RightHandIndex1
								{
									OFFSET -0.750000 0.000000 0.000000
									CHANNELS 3 Zrotation Yrotation Xrotation
									End Site
									{
										OFFSET 0.000000 0.000000 0.000000
									}
								}
							}
						}
					}
				}
			}
		}
	}
}
MOTION
Frames: 13
Frame Time: 0.016667
0.559480 16.621290 -2.865770 1.254191 28.592617 -8.398407 -14.928375 12.343689 3.117170 2.001976 1.478236 4.027429 -17.009289 7.763126 6.103855 1.259534 4.666936 3.106600 0.584450 0.329810 0.655280 18.538052 -10.636204 3.419530 -23.605154 2.463893 -21.011442 25.141015 -20.249057 39.736134 -1.498472 -8.597671 1.222880 -0.344160 -0.459750 0.351130 -5.110656 -0.772231 -8.232107 39.881493 -20.484347 18.168506 -41.317637 -5.406619 8.229599 18.088636 -4.751580 -20.448127 -16.460386 -4.609848 55.702542 -1.190270 -18.195090 -7.475330 -18.061555 -2.670105 2.930603 -51.300384 11.265006 -19.203362 -13.093618 -44.632920 1.261379 -2.266600 3.849748 0.332410 -0.496060 0.585490 0.224600 -20.085198 18.894505 17.633310 11.101353 -10.395056 -15.660660 -29.536817 37.920641 -6.240529 3.223617 -2.693761 0.572840 -0.396670 -0.628810 0.206050 
0.584100 16.608650 -2.856650 1.911137 29.197450 -8.056720 -14.911228 12.181120 3.073070 1.502731 1.675337 4.495208 -17.179901 7.792836 5.947669 1.257035 4.669839 3.100883 0.599900 0.349190 0.667340 18.591883 -10.649516 3.442262 -24.943719 2.191652 -21.122853 25.544141 -20.721716 39.835512 -1.527973 -8.720290 1.174630 -0.332900 -0.470600 0.347400 -5.203129 -0.651982 -8.206857 40.517400 -20.832475 16.702349 -42.288266 -5.509801 9.069311 18.019680 -4.730592 -20.929427 -16.948703 -4.592145 56.306117 -0.836970 -18.879200 -7.746170 -17.920484 -2.707234 2.484264 -51.393013 11.485061 -19.140330 -11.748933 -41.523194 0.704952 -2.278877 3.807658 0.342450 -0.505980 0.598220 0.226910 -20.049181 19.183229 18.115955 8.603477 -9.622910 -14.107477 -24.635022 30.489778 -3.474727 3.246877 -2.622248 0.574750 -0.388800 -0.637010 0.205390 
0.603420 16.603800 -2.845930 2.532691 29.641236 -7.669061 -14.890469 12.031496 3.023374 0.988830 1.815955 4.745988 -17.227442 7.825738 6.020785 1.250414 4.656818 3.102075 0.610170 0.364460 0.677070 18.645646 -10.680676 3.453672 -26.050261 1.936683 -21.173223 25.786668 -21.025180 39.794596 -1.547576 -8.786149 1.144900 -0.325760 -0.477720 0.343680 -5.297555 -0.504873 -8.171068 41.080056 -21.061237 15.296217 -43.067270 -5.596037 9.854037 17.825381 -4.685426 -21.239723 -17.314729 -4.623705 56.849386 -0.488310 -19.436420 -8.229920 -17.600736 -2.737278 2.200937 -51.613807 11.695926 -19.016332 -10.854162 -38.928514 0.354992 -2.299112 3.760049 0.352800 -0.516470 0.612590 0.228980 -19.950777 19.315758 18.500301 6.342046 -8.708014 -12.218020 -20.973628 24.292228 -1.823191 3.256280 -2.466690 0.576130 -0.375240 -0.641870 0.206340 
0.619390 16.605570 -2.834850 3.013413 30.007506 -7.281553 -14.873924 11.919203 2.976184 0.521829 1.884749 4.784695 -17.100340 7.832295 6.242365 1.239264 4.617597 3.111107 0.622770 0.380410 0.688090 18.688360 -10.711727 3.456463 -26.878374 1.693973 -21.167806 25.943214 -21.216144 39.639097 -1.560493 -8.810897 1.133675 -0.321400 -0.488420 0.339310 -5.372769 -0.394731 -8.127146 41.695059 -21.187010 13.987259 -43.655688 -5.661466 10.401859 17.594585 -4.629750 -21.495623 -17.695921 -4.597413 57.540794 -0.157660 -19.949900 -8.664080 -17.135686 -2.853646 2.120476 -51.996216 11.962303 -18.850736 -10.400849 -36.744114 0.166212 -2.315514 3.712485 0.365760 -0.529320 0.628300 0.232830 -19.897261 19.407419 18.789185 4.592790 -7.944051 -10.353510 -18.289102 19.578616 -0.867066 3.272183 -2.277065 0.579430 -0.365690 -0.651060 0.207090 
0.631790 16.609660 -2.822290 3.387228 30.249010 -6.902083 -14.864309 11.849607 2.945500 0.179353 1.914633 4.695613 -17.032386 7.845072 6.454759 1.225908 4.585123 3.115115 0.629090 0.387810 0.696320 18.714834 -10.729600 3.458789 -27.497388 1.502607 -21.102623 26.108474 -21.313142 39.348963 -1.564173 -8.803295 1.133376 -0.320750 -0.501860 0.333860 -5.415310 -0.346280 -8.093927 42.132209 -21.135526 12.934616 -43.894249 -5.652249 10.705600 17.342239 -4.514226 -21.727110 -17.881097 -4.682201 58.311174 -0.060640 -20.392540 -8.952000 -16.690513 -3.060516 2.187999 -52.471780 12.303219 -18.714437 -10.240081 -34.960159 0.056315 -2.332011 3.666996 0.379090 -0.541930 0.641020 0.231900 -19.778931 19.506880 19.049163 3.212787 -7.371517 -8.613872 -16.305299 15.934493 -0.305520 3.298582 -2.074003 0.580620 -0.359560 -0.655100 0.204220 
0.639720 16.614780 -2.809150 3.668146 30.347817 -6.614099 -14.854852 11.800025 2.924844 -0.096988 1.932791 4.631905 -16.925430 7.835444 6.598773 1.217494 4.557697 3.120055 0.635380 0.391500 0.711640 18.735100 -10.749486 3.457766 -27.937438 1.349878 -20.994535 26.230624 -21.339173 39.033023 -1.569111 -8.775312 1.133558 -0.323900 -0.512860 0.336510 -5.449849 -0.291961 -8.072473 42.395954 -20.901920 12.112641 -43.912747 -5.521418 10.952501 17.039462 -4.210493 -21.895320 -17.616461 -4.922852 59.335886 -0.049840 -20.792590 -9.211350 -16.418891 -3.510422 2.394673 -52.717407 12.531041 -18.491661 -10.085605 -33.373177 -0.045445 -2.349807 3.626062 0.391830 -0.553990 0.658450 0.229510 -19.423194 19.576136 19.266855 2.040664 -6.994140 -7.063782 -14.810498 13.081404 0.028665 3.336009 -1.873609 0.585310 -0.352880 -0.657880 0.202660 
0.645530 16.619350 -2.795020 3.848056 30.423422 -6.322299 -14.848120 11.767869 2.907059 -0.329480 1.923377 4.489661 -16.755012 7.804933 6.744716 1.199786 4.517848 3.124760 0.644110 0.395720 0.735490 18.749380 -10.758050 3.465091 -28.280111 1.215322 -20.932338 26.446718 -21.384278 38.688166 -1.573576 -8.745928 1.134224 -0.324880 -0.533330 0.334830 -5.473951 -0.258276 -8.060956 42.598544 -20.549728 11.359434 -43.835047 -5.298750 11.097005 16.732150 -3.710797 -22.042744 -16.882560 -5.388079 60.486374 -0.254730 -21.072750 -9.415770 -16.192138 -4.087716 2.710222 -52.881662 12.758290 -18.281119 -10.066238 -32.096056 -0.106938 -2.359618 3.588394 0.407440 -0.568300 0.675220 0.220580 -19.046600 19.598427 19.425937 1.253750 -6.667867 -5.831289 -13.656620 10.863692 0.228388 3.373187 -1.694584 0.587770 -0.350260 -0.662430 0.193600 
0.648020 16.624730 -2.781090 3.938203 30.358629 -6.095778 -14.841165 11.750735 2.895088 -0.489959 1.895801 4.332653 -16.570967 7.765117 6.862397 1.174980 4.476574 3.127042 0.652800 0.398850 0.762230 18.759132 -10.766688 3.472854 -28.487053 1.136851 -20.866439 26.639881 -21.373126 38.332080 -1.573905 -8.702904 1.137678 -0.324090 -0.558380 0.328520 -5.490458 -0.225745 -8.057104 42.735776 -20.154202 10.805985 -43.687378 -5.015433 11.152530 16.433972 -3.125963 -22.203676 -15.903466 -5.920167 61.724954 -0.491040 -21.268170 -9.630670 -16.099871 -4.765458 3.082945 -52.916508 13.020060 -18.123847 -10.149376 -31.157225 -0.144968 -2.361128 3.556181 0.425640 -0.584730 0.689220 0.205720 -18.571241 19.649283 19.549415 0.671335 -6.432520 -4.883007 -12.834416 9.048977 0.346078 3.411907 -1.537431 0.587080 -0.348320 -0.664470 0.178970 
0.649170 16.629840 -2.766180 3.956724 30.167253 -5.851334 -14.834315 11.741658 2.885581 -0.573287 1.859946 4.123735 -16.459819 7.729537 6.925315 1.138349 4.446845 3.125424 0.656120 0.393950 0.784370 18.766943 -10.765000 3.486710 -28.631944 1.104775 -20.832277 26.929469 -21.341274 37.873771 -1.570215 -8.652184 1.144594 -0.323180 -0.579320 0.320420 -5.498509 -0.206968 -8.056454 42.878488 -19.698302 10.307857 -43.544604 -4.674312 11.108439 16.165504 -2.484800 -22.403797 -14.779466 -6.440777 63.016582 -0.818270 -21.365030 -9.702780 -16.074721 -5.519606 3.503165 -52.885521 13.343185 -17.994780 -10.293775 -30.459772 -0.174490 -2.363234 3.520828 0.449660 -0.597320 0.698030 0.187490 -18.086245 19.743276 19.621618 0.274073 -6.217662 -4.192662 -12.231559 7.560601 0.422769 3.440623 -1.398978 0.578110 -0.342960 -0.659090 0.159110 
0.648760 16.634510 -2.751710 3.954819 29.968874 -5.629584 -14.825907 11.725245 2.870995 -0.639396 1.820089 3.913856 -16.358734 7.705533 7.036187 1.112679 4.413388 3.122677 0.663870 0.397740 0.807280 18.777786 -10.764293 3.503847 -28.777587 1.073979 -20.835329 27.247055 -21.333996 37.455536 -1.569491 -8.612200 1.147195 -0.320140 -0.604400 0.315270 -5.512225 -0.168084 -8.056008 43.049418 -19.278363 9.850385 -43.529749 -4.344182 11.064209 15.942740 -1.863041 -22.562940 -13.670429 -7.012454 64.115211 -1.164590 -21.456520 -9.749740 -16.095422 -6.206626 3.874289 -52.589193 13.582088 -17.779178 -10.647547 -29.833052 -0.136457 -2.358552 3.501741 0.464620 -0.610340 0.709460 0.171980 -17.651579 19.794430 19.639869 -0.058406 -6.041965 -3.646627 -11.604224 6.441239 0.479681 3.462560 -1.289022 0.577690 -0.344730 -0.659380 0.144130 
0.648140 16.638370 -2.737210 3.952593 29.774270 -5.419937 -14.818251 11.709101 2.856795 -0.693675 1.783026 3.717710 -16.279032 7.685586 7.147403 1.097015 4.382648 3.120116 0.675690 0.408610 0.827190 18.787848 -10.761522 3.522372 -28.935834 1.047809 -20.818672 27.603974 -21.336037 37.024180 -1.573464 -8.581345 1.146029 -0.316540 -0.626010 0.319210 -5.523754 -0.127304 -8.057421 43.210239 -18.874162 9.437865 -43.564331 -4.029201 11.004586 15.776173 -1.293022 -22.661879 -12.596793 -7.593500 64.968604 -1.572290 -21.495410 -9.767290 -16.236173 -6.779325 4.171862 -52.175915 13.778457 -17.560319 -10.953610 -29.351422 -0.093447 -2.351629 3.499640 0.472940 -0.619900 0.723440 0.163060 -17.219125 19.803479 19.630346 -0.400624 -5.853725 -3.160695 -11.005047 5.472281 0.517173 3.482931 -1.200256 0.585420 -0.352100 -0.662970 0.136290 
0.648180 16.641480 -2.723050 3.938911 29.554314 -5.245599 -14.811563 11.694343 2.843934 -0.742602 1.749075 3.551221 -16.199586 7.669571 7.253328 1.066492 4.364531 3.117605 0.684090 0.413210 0.844370 18.796513 -10.754917 3.545622 -29.130009 1.041766 -20.778982 28.031594 -21.360851 36.583289 -1.574821 -8.560485 1.148512 -0.308830 -0.640310 0.314940 -5.531049 -0.086563 -8.063475 43.393489 -18.491609 9.122865 -43.656851 -3.719933 10.869952 15.678335 -0.769385 -22.675874 -11.545098 -8.179100 65.555086 -2.016980 -21.434090 -9.933200 -16.560573 -7.239862 4.364602 -51.589389 13.962525 -17.309352 -11.192310 -28.956113 -0.055522 -2.346802 3.488691 0.486570 -0.624610 0.727490 0.152810 -16.754720 19.760652 19.586650 -0.786729 -5.720331 -2.784136 -10.499869 4.732977 0.538023 3.484328 -1.124452 0.579540 -0.348460 -0.661050 0.121350 
0.647780 16.642830 -2.708960 3.960818 29.324181 -5.033562 -14.805370 11.675877 2.830348 -0.841102 1.730911 3.385047 -16.111134 7.640597 7.312071 1.054156 4.333891 3.117176 0.689040 0.421150 0.850930 18.806833 -10.738789 3.575815 -29.379858 1.055325 -20.775713 28.542478 -21.407217 36.133977 -1.578232 -8.551062 1.144605 -0.305280 -0.652470 0.318770 -5.536831 -0.054216 -8.070129 43.553493 -18.185483 8.841176 -43.801796 -3.476063 10.716325 15.605861 -0.413384 -22.666527 -10.817424 -8.596930 65.811362 -2.279500 -21.365670 -10.013060 -16.803267 -7.517359 4.490195 -51.129205 14.128183 -17.112226 -11.398004 -28.616964 -0.009992 -2.343232 3.494706 0.487640 -0.627510 0.734260 0.146750 -16.407222 19.713459 19.521986 -1.142656 -5.542523 -2.476126 -10.051527 4.183601 0.551484 3.491210 -1.071599 0.585450 -0.355430 -0.660560 0.117860 
